<mxfile host="app.diagrams.net" agent="Mozilla/5.0 (Windows NT 10.0; Win64; x64) AppleWebKit/537.36 (KHTML, like Gecko) Chrome/131.0.0.0 Safari/537.36" version="24.8.8">
  <diagram name="Page-1" id="2YBvvXClWsGukQMizWep">
    <mxGraphModel dx="1793" dy="1108" grid="0" gridSize="10" guides="1" tooltips="1" connect="1" arrows="1" fold="1" page="0" pageScale="1" pageWidth="850" pageHeight="1100" math="0" shadow="0">
      <root>
        <mxCell id="0" />
        <mxCell id="1" parent="0" />
        <mxCell id="KwT5RkakPbR6_VRtJiSc-1" value="User" style="shape=umlLifeline;perimeter=lifelinePerimeter;whiteSpace=wrap;html=1;container=0;dropTarget=0;collapsible=0;recursiveResize=0;outlineConnect=0;portConstraint=eastwest;newEdgeStyle={&quot;edgeStyle&quot;:&quot;elbowEdgeStyle&quot;,&quot;elbow&quot;:&quot;vertical&quot;,&quot;curved&quot;:0,&quot;rounded&quot;:0};" parent="1" vertex="1">
          <mxGeometry x="-391" y="-137" width="100" height="300" as="geometry" />
        </mxCell>
        <mxCell id="KwT5RkakPbR6_VRtJiSc-2" value="" style="html=1;points=[];perimeter=orthogonalPerimeter;outlineConnect=0;targetShapes=umlLifeline;portConstraint=eastwest;newEdgeStyle={&quot;edgeStyle&quot;:&quot;elbowEdgeStyle&quot;,&quot;elbow&quot;:&quot;vertical&quot;,&quot;curved&quot;:0,&quot;rounded&quot;:0};" parent="KwT5RkakPbR6_VRtJiSc-1" vertex="1">
          <mxGeometry x="45" y="70" width="10" height="140" as="geometry" />
        </mxCell>
        <mxCell id="KwT5RkakPbR6_VRtJiSc-5" value="Application" style="shape=umlLifeline;perimeter=lifelinePerimeter;whiteSpace=wrap;html=1;container=0;dropTarget=0;collapsible=0;recursiveResize=0;outlineConnect=0;portConstraint=eastwest;newEdgeStyle={&quot;edgeStyle&quot;:&quot;elbowEdgeStyle&quot;,&quot;elbow&quot;:&quot;vertical&quot;,&quot;curved&quot;:0,&quot;rounded&quot;:0};" parent="1" vertex="1">
          <mxGeometry x="-16" y="-137" width="100" height="859" as="geometry" />
        </mxCell>
        <mxCell id="KwT5RkakPbR6_VRtJiSc-6" value="" style="html=1;points=[];perimeter=orthogonalPerimeter;outlineConnect=0;targetShapes=umlLifeline;portConstraint=eastwest;newEdgeStyle={&quot;edgeStyle&quot;:&quot;elbowEdgeStyle&quot;,&quot;elbow&quot;:&quot;vertical&quot;,&quot;curved&quot;:0,&quot;rounded&quot;:0};" parent="KwT5RkakPbR6_VRtJiSc-5" vertex="1">
          <mxGeometry x="45" y="284" width="10" height="191" as="geometry" />
        </mxCell>
        <mxCell id="KwT5RkakPbR6_VRtJiSc-11" value="3d Visualizee" style="shape=umlLifeline;perimeter=lifelinePerimeter;whiteSpace=wrap;html=1;container=0;dropTarget=0;collapsible=0;recursiveResize=0;outlineConnect=0;portConstraint=eastwest;newEdgeStyle={&quot;edgeStyle&quot;:&quot;elbowEdgeStyle&quot;,&quot;elbow&quot;:&quot;vertical&quot;,&quot;curved&quot;:0,&quot;rounded&quot;:0};" parent="1" vertex="1">
          <mxGeometry x="169" y="-137" width="100" height="859" as="geometry" />
        </mxCell>
        <mxCell id="KwT5RkakPbR6_VRtJiSc-12" value="" style="html=1;points=[];perimeter=orthogonalPerimeter;outlineConnect=0;targetShapes=umlLifeline;portConstraint=eastwest;newEdgeStyle={&quot;edgeStyle&quot;:&quot;elbowEdgeStyle&quot;,&quot;elbow&quot;:&quot;vertical&quot;,&quot;curved&quot;:0,&quot;rounded&quot;:0};" parent="KwT5RkakPbR6_VRtJiSc-11" vertex="1">
          <mxGeometry x="45" y="291" width="10" height="333" as="geometry" />
        </mxCell>
        <mxCell id="KwT5RkakPbR6_VRtJiSc-14" value="Payment" style="shape=umlLifeline;perimeter=lifelinePerimeter;whiteSpace=wrap;html=1;container=0;dropTarget=0;collapsible=0;recursiveResize=0;outlineConnect=0;portConstraint=eastwest;newEdgeStyle={&quot;edgeStyle&quot;:&quot;elbowEdgeStyle&quot;,&quot;elbow&quot;:&quot;vertical&quot;,&quot;curved&quot;:0,&quot;rounded&quot;:0};" parent="1" vertex="1">
          <mxGeometry x="327" y="-137" width="100" height="849" as="geometry" />
        </mxCell>
        <mxCell id="KwT5RkakPbR6_VRtJiSc-15" value="&lt;span style=&quot;color: rgba(0, 0, 0, 0); font-family: monospace; font-size: 0px; text-align: start;&quot;&gt;%3CmxGraphModel%3E%3Croot%3E%3CmxCell%20id%3D%220%22%2F%3E%3CmxCell%20id%3D%221%22%20parent%3D%220%22%2F%3E%3CmxCell%20id%3D%222%22%20value%3D%22%22%20style%3D%22endArrow%3Dclassic%3Bhtml%3D1%3Brounded%3D0%3B%22%20edge%3D%221%22%20parent%3D%221%22%3E%3CmxGeometry%20relative%3D%221%22%20as%3D%22geometry%22%3E%3CmxPoint%20x%3D%22-147%22%20y%3D%2267%22%20as%3D%22sourcePoint%22%2F%3E%3CmxPoint%20x%3D%22545%22%20y%3D%2265%22%20as%3D%22targetPoint%22%2F%3E%3CArray%20as%3D%22points%22%3E%3CmxPoint%20x%3D%22-116%22%20y%3D%2267%22%2F%3E%3CmxPoint%20x%3D%22-16%22%20y%3D%2265%22%2F%3E%3C%2FArray%3E%3C%2FmxGeometry%3E%3C%2FmxCell%3E%3CmxCell%20id%3D%223%22%20value%3D%22Create%20Account%22%20style%3D%22edgeLabel%3Bresizable%3D0%3Bhtml%3D1%3B%3Balign%3Dcenter%3BverticalAlign%3Dmiddle%3B%22%20connectable%3D%220%22%20vertex%3D%221%22%20parent%3D%222%22%3E%3CmxGeometry%20relative%3D%221%22%20as%3D%22geometry%22%2F%3E%3C%2FmxCell%3E%3C%2Froot%3E%3C%2FmxGraphModel%3E&lt;/span&gt;&lt;span style=&quot;color: rgba(0, 0, 0, 0); font-family: monospace; font-size: 0px; text-align: start;&quot;&gt;%3CmxGraphModel%3E%3Croot%3E%3CmxCell%20id%3D%220%22%2F%3E%3CmxCell%20id%3D%221%22%20parent%3D%220%22%2F%3E%3CmxCell%20id%3D%222%22%20value%3D%22%22%20style%3D%22endArrow%3Dclassic%3Bhtml%3D1%3Brounded%3D0%3B%22%20edge%3D%221%22%20parent%3D%221%22%3E%3CmxGeometry%20relative%3D%221%22%20as%3D%22geometry%22%3E%3CmxPoint%20x%3D%22-147%22%20y%3D%2267%22%20as%3D%22sourcePoint%22%2F%3E%3CmxPoint%20x%3D%22545%22%20y%3D%2265%22%20as%3D%22targetPoint%22%2F%3E%3CArray%20as%3D%22points%22%3E%3CmxPoint%20x%3D%22-116%22%20y%3D%2267%22%2F%3E%3CmxPoint%20x%3D%22-16%22%20y%3D%2265%22%2F%3E%3C%2FArray%3E%3C%2FmxGeometry%3E%3C%2FmxCell%3E%3CmxCell%20id%3D%223%22%20value%3D%22Create%20Account%22%20style%3D%22edgeLabel%3Bresizable%3D0%3Bhtml%3D1%3B%3Balign%3Dcenter%3BverticalAlign%3Dmiddle%3B%22%20connectable%3D%220%22%20vertex%3D%221%22%20parent%3D%222%22%3E%3CmxGeometry%20relative%3D%221%22%20as%3D%22geometry%22%2F%3E%3C%2FmxCell%3E%3C%2Froot%3E%3C%2FmxGraphModel%3E&lt;/span&gt;" style="html=1;points=[];perimeter=orthogonalPerimeter;outlineConnect=0;targetShapes=umlLifeline;portConstraint=eastwest;newEdgeStyle={&quot;edgeStyle&quot;:&quot;elbowEdgeStyle&quot;,&quot;elbow&quot;:&quot;vertical&quot;,&quot;curved&quot;:0,&quot;rounded&quot;:0};" parent="KwT5RkakPbR6_VRtJiSc-14" vertex="1">
          <mxGeometry x="45" y="520" width="10" height="117" as="geometry" />
        </mxCell>
        <mxCell id="QZSU1CSu_nFQ4g8SWuqo-6" value="&lt;span style=&quot;color: rgba(0, 0, 0, 0); font-family: monospace; font-size: 0px; text-align: start;&quot;&gt;%3CmxGraphModel%3E%3Croot%3E%3CmxCell%20id%3D%220%22%2F%3E%3CmxCell%20id%3D%221%22%20parent%3D%220%22%2F%3E%3CmxCell%20id%3D%222%22%20value%3D%22%22%20style%3D%22endArrow%3Dclassic%3Bhtml%3D1%3Brounded%3D0%3B%22%20edge%3D%221%22%20parent%3D%221%22%3E%3CmxGeometry%20relative%3D%221%22%20as%3D%22geometry%22%3E%3CmxPoint%20x%3D%22-147%22%20y%3D%2267%22%20as%3D%22sourcePoint%22%2F%3E%3CmxPoint%20x%3D%22545%22%20y%3D%2265%22%20as%3D%22targetPoint%22%2F%3E%3CArray%20as%3D%22points%22%3E%3CmxPoint%20x%3D%22-116%22%20y%3D%2267%22%2F%3E%3CmxPoint%20x%3D%22-16%22%20y%3D%2265%22%2F%3E%3C%2FArray%3E%3C%2FmxGeometry%3E%3C%2FmxCell%3E%3CmxCell%20id%3D%223%22%20value%3D%22Create%20Account%22%20style%3D%22edgeLabel%3Bresizable%3D0%3Bhtml%3D1%3B%3Balign%3Dcenter%3BverticalAlign%3Dmiddle%3B%22%20connectable%3D%220%22%20vertex%3D%221%22%20parent%3D%222%22%3E%3CmxGeometry%20relative%3D%221%22%20as%3D%22geometry%22%2F%3E%3C%2FmxCell%3E%3C%2Froot%3E%3C%2FmxGraphModel%3E&lt;/span&gt;&lt;span style=&quot;color: rgba(0, 0, 0, 0); font-family: monospace; font-size: 0px; text-align: start;&quot;&gt;%3CmxGraphModel%3E%3Croot%3E%3CmxCell%20id%3D%220%22%2F%3E%3CmxCell%20id%3D%221%22%20parent%3D%220%22%2F%3E%3CmxCell%20id%3D%222%22%20value%3D%22%22%20style%3D%22endArrow%3Dclassic%3Bhtml%3D1%3Brounded%3D0%3B%22%20edge%3D%221%22%20parent%3D%221%22%3E%3CmxGeometry%20relative%3D%221%22%20as%3D%22geometry%22%3E%3CmxPoint%20x%3D%22-147%22%20y%3D%2267%22%20as%3D%22sourcePoint%22%2F%3E%3CmxPoint%20x%3D%22545%22%20y%3D%2265%22%20as%3D%22targetPoint%22%2F%3E%3CArray%20as%3D%22points%22%3E%3CmxPoint%20x%3D%22-116%22%20y%3D%2267%22%2F%3E%3CmxPoint%20x%3D%22-16%22%20y%3D%2265%22%2F%3E%3C%2FArray%3E%3C%2FmxGeometry%3E%3C%2FmxCell%3E%3CmxCell%20id%3D%223%22%20value%3D%22Create%20Account%22%20style%3D%22edgeLabel%3Bresizable%3D0%3Bhtml%3D1%3B%3Balign%3Dcenter%3BverticalAlign%3Dmiddle%3B%22%20connectable%3D%220%22%20vertex%3D%221%22%20parent%3D%222%22%3E%3CmxGeometry%20relative%3D%221%22%20as%3D%22geometry%22%2F%3E%3C%2FmxCell%3E%3C%2Froot%3E%3C%2FmxGraphModel%3E&lt;/span&gt;" style="html=1;points=[];perimeter=orthogonalPerimeter;outlineConnect=0;targetShapes=umlLifeline;portConstraint=eastwest;newEdgeStyle={&quot;edgeStyle&quot;:&quot;elbowEdgeStyle&quot;,&quot;elbow&quot;:&quot;vertical&quot;,&quot;curved&quot;:0,&quot;rounded&quot;:0};" vertex="1" parent="KwT5RkakPbR6_VRtJiSc-14">
          <mxGeometry x="45" y="686" width="10" height="141" as="geometry" />
        </mxCell>
        <mxCell id="KwT5RkakPbR6_VRtJiSc-16" value="Database" style="shape=umlLifeline;perimeter=lifelinePerimeter;whiteSpace=wrap;html=1;container=0;dropTarget=0;collapsible=0;recursiveResize=0;outlineConnect=0;portConstraint=eastwest;newEdgeStyle={&quot;edgeStyle&quot;:&quot;elbowEdgeStyle&quot;,&quot;elbow&quot;:&quot;vertical&quot;,&quot;curved&quot;:0,&quot;rounded&quot;:0};" parent="1" vertex="1">
          <mxGeometry x="495" y="-137" width="100" height="853" as="geometry" />
        </mxCell>
        <mxCell id="KwT5RkakPbR6_VRtJiSc-17" value="" style="html=1;points=[];perimeter=orthogonalPerimeter;outlineConnect=0;targetShapes=umlLifeline;portConstraint=eastwest;newEdgeStyle={&quot;edgeStyle&quot;:&quot;elbowEdgeStyle&quot;,&quot;elbow&quot;:&quot;vertical&quot;,&quot;curved&quot;:0,&quot;rounded&quot;:0};" parent="KwT5RkakPbR6_VRtJiSc-16" vertex="1">
          <mxGeometry x="45" y="107" width="10" height="186" as="geometry" />
        </mxCell>
        <mxCell id="QZSU1CSu_nFQ4g8SWuqo-7" value="" style="html=1;points=[];perimeter=orthogonalPerimeter;outlineConnect=0;targetShapes=umlLifeline;portConstraint=eastwest;newEdgeStyle={&quot;edgeStyle&quot;:&quot;elbowEdgeStyle&quot;,&quot;elbow&quot;:&quot;vertical&quot;,&quot;curved&quot;:0,&quot;rounded&quot;:0};" vertex="1" parent="KwT5RkakPbR6_VRtJiSc-16">
          <mxGeometry x="45" y="651" width="10" height="186" as="geometry" />
        </mxCell>
        <mxCell id="KwT5RkakPbR6_VRtJiSc-28" value="Authorize" style="shape=umlLifeline;perimeter=lifelinePerimeter;whiteSpace=wrap;html=1;container=0;dropTarget=0;collapsible=0;recursiveResize=0;outlineConnect=0;portConstraint=eastwest;newEdgeStyle={&quot;edgeStyle&quot;:&quot;elbowEdgeStyle&quot;,&quot;elbow&quot;:&quot;vertical&quot;,&quot;curved&quot;:0,&quot;rounded&quot;:0};" parent="1" vertex="1">
          <mxGeometry x="-202" y="-137" width="100" height="641" as="geometry" />
        </mxCell>
        <mxCell id="KwT5RkakPbR6_VRtJiSc-29" value="" style="html=1;points=[];perimeter=orthogonalPerimeter;outlineConnect=0;targetShapes=umlLifeline;portConstraint=eastwest;newEdgeStyle={&quot;edgeStyle&quot;:&quot;elbowEdgeStyle&quot;,&quot;elbow&quot;:&quot;vertical&quot;,&quot;curved&quot;:0,&quot;rounded&quot;:0};" parent="KwT5RkakPbR6_VRtJiSc-28" vertex="1">
          <mxGeometry x="45" y="80" width="10" height="121" as="geometry" />
        </mxCell>
        <mxCell id="KwT5RkakPbR6_VRtJiSc-30" value="" style="endArrow=classic;html=1;rounded=0;" parent="1" source="KwT5RkakPbR6_VRtJiSc-1" target="KwT5RkakPbR6_VRtJiSc-28" edge="1">
          <mxGeometry relative="1" as="geometry">
            <mxPoint x="41" y="53" as="sourcePoint" />
            <mxPoint x="-155" y="53" as="targetPoint" />
            <Array as="points">
              <mxPoint x="-310" y="-23" />
              <mxPoint x="-210" y="-19" />
            </Array>
          </mxGeometry>
        </mxCell>
        <mxCell id="KwT5RkakPbR6_VRtJiSc-31" value="Label" style="edgeLabel;resizable=0;html=1;;align=center;verticalAlign=middle;" parent="KwT5RkakPbR6_VRtJiSc-30" connectable="0" vertex="1">
          <mxGeometry relative="1" as="geometry" />
        </mxCell>
        <mxCell id="KwT5RkakPbR6_VRtJiSc-32" value="Authorize Request&lt;div&gt;&lt;br&gt;&lt;div&gt;&lt;br&gt;&lt;/div&gt;&lt;/div&gt;" style="edgeLabel;html=1;align=center;verticalAlign=middle;resizable=0;points=[];" parent="KwT5RkakPbR6_VRtJiSc-30" vertex="1" connectable="0">
          <mxGeometry x="-0.0106" y="-1" relative="1" as="geometry">
            <mxPoint x="-1" y="-2" as="offset" />
          </mxGeometry>
        </mxCell>
        <mxCell id="KwT5RkakPbR6_VRtJiSc-36" value="" style="endArrow=classic;html=1;rounded=0;" parent="1" edge="1">
          <mxGeometry relative="1" as="geometry">
            <mxPoint x="-155.5" y="17" as="sourcePoint" />
            <mxPoint x="-341" y="17" as="targetPoint" />
          </mxGeometry>
        </mxCell>
        <mxCell id="KwT5RkakPbR6_VRtJiSc-37" value="Label" style="edgeLabel;resizable=0;html=1;;align=center;verticalAlign=middle;" parent="KwT5RkakPbR6_VRtJiSc-36" connectable="0" vertex="1">
          <mxGeometry relative="1" as="geometry" />
        </mxCell>
        <mxCell id="KwT5RkakPbR6_VRtJiSc-39" value="Authorize Accepted&lt;div&gt;&lt;br&gt;&lt;/div&gt;" style="edgeLabel;html=1;align=center;verticalAlign=middle;resizable=0;points=[];" parent="KwT5RkakPbR6_VRtJiSc-36" vertex="1" connectable="0">
          <mxGeometry x="-0.0027" y="5" relative="1" as="geometry">
            <mxPoint x="5" y="-3" as="offset" />
          </mxGeometry>
        </mxCell>
        <mxCell id="KwT5RkakPbR6_VRtJiSc-40" value="" style="html=1;points=[];perimeter=orthogonalPerimeter;outlineConnect=0;targetShapes=umlLifeline;portConstraint=eastwest;newEdgeStyle={&quot;edgeStyle&quot;:&quot;elbowEdgeStyle&quot;,&quot;elbow&quot;:&quot;vertical&quot;,&quot;curved&quot;:0,&quot;rounded&quot;:0};" parent="1" vertex="1">
          <mxGeometry x="-346" y="163" width="10" height="543" as="geometry" />
        </mxCell>
        <mxCell id="KwT5RkakPbR6_VRtJiSc-46" value="" style="endArrow=classic;html=1;rounded=0;" parent="1" target="KwT5RkakPbR6_VRtJiSc-6" edge="1">
          <mxGeometry relative="1" as="geometry">
            <mxPoint x="-335" y="212" as="sourcePoint" />
            <mxPoint x="-146" y="212" as="targetPoint" />
            <Array as="points" />
          </mxGeometry>
        </mxCell>
        <mxCell id="KwT5RkakPbR6_VRtJiSc-47" value="Label" style="edgeLabel;resizable=0;html=1;;align=center;verticalAlign=middle;" parent="KwT5RkakPbR6_VRtJiSc-46" connectable="0" vertex="1">
          <mxGeometry relative="1" as="geometry" />
        </mxCell>
        <mxCell id="KwT5RkakPbR6_VRtJiSc-48" value="&lt;div&gt;Access Website&lt;br&gt;&lt;div&gt;&lt;br&gt;&lt;/div&gt;&lt;/div&gt;" style="edgeLabel;html=1;align=center;verticalAlign=middle;resizable=0;points=[];" parent="KwT5RkakPbR6_VRtJiSc-46" vertex="1" connectable="0">
          <mxGeometry x="-0.0106" y="-1" relative="1" as="geometry">
            <mxPoint x="1" as="offset" />
          </mxGeometry>
        </mxCell>
        <mxCell id="KwT5RkakPbR6_VRtJiSc-49" value="" style="endArrow=classic;html=1;rounded=0;" parent="1" edge="1">
          <mxGeometry relative="1" as="geometry">
            <mxPoint x="-336" y="251" as="sourcePoint" />
            <mxPoint x="28" y="251" as="targetPoint" />
            <Array as="points" />
          </mxGeometry>
        </mxCell>
        <mxCell id="KwT5RkakPbR6_VRtJiSc-50" value="Label" style="edgeLabel;resizable=0;html=1;;align=center;verticalAlign=middle;" parent="KwT5RkakPbR6_VRtJiSc-49" connectable="0" vertex="1">
          <mxGeometry relative="1" as="geometry" />
        </mxCell>
        <mxCell id="KwT5RkakPbR6_VRtJiSc-51" value="&lt;div&gt;&lt;div&gt;&lt;br&gt;&lt;/div&gt;&lt;/div&gt;" style="edgeLabel;html=1;align=center;verticalAlign=middle;resizable=0;points=[];" parent="KwT5RkakPbR6_VRtJiSc-49" vertex="1" connectable="0">
          <mxGeometry x="-0.0106" y="-1" relative="1" as="geometry">
            <mxPoint x="1" as="offset" />
          </mxGeometry>
        </mxCell>
        <mxCell id="KwT5RkakPbR6_VRtJiSc-52" value="Text" style="edgeLabel;html=1;align=center;verticalAlign=middle;resizable=0;points=[];" parent="KwT5RkakPbR6_VRtJiSc-49" vertex="1" connectable="0">
          <mxGeometry x="0.011" y="6" relative="1" as="geometry">
            <mxPoint as="offset" />
          </mxGeometry>
        </mxCell>
        <mxCell id="KwT5RkakPbR6_VRtJiSc-53" value="Browse Products&lt;div&gt;&lt;br&gt;&lt;/div&gt;" style="edgeLabel;html=1;align=center;verticalAlign=middle;resizable=0;points=[];" parent="KwT5RkakPbR6_VRtJiSc-49" vertex="1" connectable="0">
          <mxGeometry x="0.033" y="6" relative="1" as="geometry">
            <mxPoint as="offset" />
          </mxGeometry>
        </mxCell>
        <mxCell id="KwT5RkakPbR6_VRtJiSc-59" value="" style="endArrow=classic;html=1;rounded=0;" parent="1" target="KwT5RkakPbR6_VRtJiSc-11" edge="1">
          <mxGeometry relative="1" as="geometry">
            <mxPoint x="-334" y="321" as="sourcePoint" />
            <mxPoint x="30" y="321" as="targetPoint" />
            <Array as="points" />
          </mxGeometry>
        </mxCell>
        <mxCell id="KwT5RkakPbR6_VRtJiSc-60" value="Label" style="edgeLabel;resizable=0;html=1;;align=center;verticalAlign=middle;" parent="KwT5RkakPbR6_VRtJiSc-59" connectable="0" vertex="1">
          <mxGeometry relative="1" as="geometry" />
        </mxCell>
        <mxCell id="KwT5RkakPbR6_VRtJiSc-61" value="&lt;div&gt;&lt;div&gt;&lt;br&gt;&lt;/div&gt;&lt;/div&gt;" style="edgeLabel;html=1;align=center;verticalAlign=middle;resizable=0;points=[];" parent="KwT5RkakPbR6_VRtJiSc-59" vertex="1" connectable="0">
          <mxGeometry x="-0.0106" y="-1" relative="1" as="geometry">
            <mxPoint x="1" as="offset" />
          </mxGeometry>
        </mxCell>
        <mxCell id="KwT5RkakPbR6_VRtJiSc-62" value="Text" style="edgeLabel;html=1;align=center;verticalAlign=middle;resizable=0;points=[];" parent="KwT5RkakPbR6_VRtJiSc-59" vertex="1" connectable="0">
          <mxGeometry x="0.011" y="6" relative="1" as="geometry">
            <mxPoint as="offset" />
          </mxGeometry>
        </mxCell>
        <mxCell id="KwT5RkakPbR6_VRtJiSc-63" value="&lt;div&gt;Customize 3D Products&lt;/div&gt;&lt;div&gt;&lt;br&gt;&lt;/div&gt;" style="edgeLabel;html=1;align=center;verticalAlign=middle;resizable=0;points=[];" parent="KwT5RkakPbR6_VRtJiSc-59" vertex="1" connectable="0">
          <mxGeometry x="0.033" y="6" relative="1" as="geometry">
            <mxPoint as="offset" />
          </mxGeometry>
        </mxCell>
        <mxCell id="KwT5RkakPbR6_VRtJiSc-64" value="" style="endArrow=classic;html=1;rounded=0;" parent="1" edge="1">
          <mxGeometry relative="1" as="geometry">
            <mxPoint x="-335" y="404" as="sourcePoint" />
            <mxPoint x="210" y="404" as="targetPoint" />
            <Array as="points" />
          </mxGeometry>
        </mxCell>
        <mxCell id="KwT5RkakPbR6_VRtJiSc-65" value="Label" style="edgeLabel;resizable=0;html=1;;align=center;verticalAlign=middle;" parent="KwT5RkakPbR6_VRtJiSc-64" connectable="0" vertex="1">
          <mxGeometry relative="1" as="geometry" />
        </mxCell>
        <mxCell id="KwT5RkakPbR6_VRtJiSc-66" value="&lt;div&gt;&lt;div&gt;&lt;br&gt;&lt;/div&gt;&lt;/div&gt;" style="edgeLabel;html=1;align=center;verticalAlign=middle;resizable=0;points=[];" parent="KwT5RkakPbR6_VRtJiSc-64" vertex="1" connectable="0">
          <mxGeometry x="-0.0106" y="-1" relative="1" as="geometry">
            <mxPoint x="1" as="offset" />
          </mxGeometry>
        </mxCell>
        <mxCell id="KwT5RkakPbR6_VRtJiSc-67" value="Text" style="edgeLabel;html=1;align=center;verticalAlign=middle;resizable=0;points=[];" parent="KwT5RkakPbR6_VRtJiSc-64" vertex="1" connectable="0">
          <mxGeometry x="0.011" y="6" relative="1" as="geometry">
            <mxPoint as="offset" />
          </mxGeometry>
        </mxCell>
        <mxCell id="KwT5RkakPbR6_VRtJiSc-68" value="&lt;div&gt;Add to Cart&lt;/div&gt;&lt;div&gt;&lt;br&gt;&lt;/div&gt;" style="edgeLabel;html=1;align=center;verticalAlign=middle;resizable=0;points=[];" parent="KwT5RkakPbR6_VRtJiSc-64" vertex="1" connectable="0">
          <mxGeometry x="0.033" y="6" relative="1" as="geometry">
            <mxPoint as="offset" />
          </mxGeometry>
        </mxCell>
        <mxCell id="KwT5RkakPbR6_VRtJiSc-74" value="" style="endArrow=classic;html=1;rounded=0;" parent="1" edge="1">
          <mxGeometry relative="1" as="geometry">
            <mxPoint x="215" y="421" as="sourcePoint" />
            <mxPoint x="374" y="417" as="targetPoint" />
            <Array as="points" />
          </mxGeometry>
        </mxCell>
        <mxCell id="KwT5RkakPbR6_VRtJiSc-75" value="Label" style="edgeLabel;resizable=0;html=1;;align=center;verticalAlign=middle;" parent="KwT5RkakPbR6_VRtJiSc-74" connectable="0" vertex="1">
          <mxGeometry relative="1" as="geometry" />
        </mxCell>
        <mxCell id="KwT5RkakPbR6_VRtJiSc-76" value="&lt;div&gt;&lt;div&gt;Send payment information&lt;/div&gt;&lt;/div&gt;&lt;div&gt;&lt;br&gt;&lt;/div&gt;" style="edgeLabel;html=1;align=center;verticalAlign=middle;resizable=0;points=[];" parent="KwT5RkakPbR6_VRtJiSc-74" vertex="1" connectable="0">
          <mxGeometry x="-0.0106" y="-1" relative="1" as="geometry">
            <mxPoint x="1" as="offset" />
          </mxGeometry>
        </mxCell>
        <mxCell id="KwT5RkakPbR6_VRtJiSc-87" value="Payment Process" style="html=1;verticalAlign=bottom;endArrow=open;dashed=1;endSize=8;curved=0;rounded=0;" parent="1" target="KwT5RkakPbR6_VRtJiSc-11" edge="1">
          <mxGeometry relative="1" as="geometry">
            <mxPoint x="366" y="475" as="sourcePoint" />
            <mxPoint x="286" y="475" as="targetPoint" />
          </mxGeometry>
        </mxCell>
        <mxCell id="KwT5RkakPbR6_VRtJiSc-88" value="" style="endArrow=classic;html=1;rounded=0;" parent="1" edge="1">
          <mxGeometry relative="1" as="geometry">
            <mxPoint x="215" y="447" as="sourcePoint" />
            <mxPoint x="374" y="443" as="targetPoint" />
            <Array as="points" />
          </mxGeometry>
        </mxCell>
        <mxCell id="KwT5RkakPbR6_VRtJiSc-89" value="Label" style="edgeLabel;resizable=0;html=1;;align=center;verticalAlign=middle;" parent="KwT5RkakPbR6_VRtJiSc-88" connectable="0" vertex="1">
          <mxGeometry relative="1" as="geometry" />
        </mxCell>
        <mxCell id="KwT5RkakPbR6_VRtJiSc-90" value="&lt;div&gt;&lt;div&gt;Payment with verify&lt;/div&gt;&lt;/div&gt;&lt;div&gt;&lt;br&gt;&lt;/div&gt;" style="edgeLabel;html=1;align=center;verticalAlign=middle;resizable=0;points=[];" parent="KwT5RkakPbR6_VRtJiSc-88" connectable="0" vertex="1">
          <mxGeometry x="-0.0106" y="-1" relative="1" as="geometry">
            <mxPoint x="1" as="offset" />
          </mxGeometry>
        </mxCell>
        <mxCell id="KwT5RkakPbR6_VRtJiSc-91" value="" style="html=1;points=[];perimeter=orthogonalPerimeter;outlineConnect=0;targetShapes=umlLifeline;portConstraint=eastwest;newEdgeStyle={&quot;edgeStyle&quot;:&quot;elbowEdgeStyle&quot;,&quot;elbow&quot;:&quot;vertical&quot;,&quot;curved&quot;:0,&quot;rounded&quot;:0};" parent="1" vertex="1">
          <mxGeometry x="-157" y="509" width="10" height="191" as="geometry" />
        </mxCell>
        <mxCell id="QZSU1CSu_nFQ4g8SWuqo-1" value="" style="endArrow=classic;html=1;rounded=0;" edge="1" parent="1" source="KwT5RkakPbR6_VRtJiSc-29" target="KwT5RkakPbR6_VRtJiSc-16">
          <mxGeometry relative="1" as="geometry">
            <mxPoint x="-147" y="61" as="sourcePoint" />
            <mxPoint x="42" y="65" as="targetPoint" />
            <Array as="points">
              <mxPoint x="-116" y="67" />
              <mxPoint x="-16" y="65" />
            </Array>
          </mxGeometry>
        </mxCell>
        <mxCell id="QZSU1CSu_nFQ4g8SWuqo-2" value="Create Account" style="edgeLabel;resizable=0;html=1;;align=center;verticalAlign=middle;" connectable="0" vertex="1" parent="QZSU1CSu_nFQ4g8SWuqo-1">
          <mxGeometry relative="1" as="geometry" />
        </mxCell>
        <mxCell id="QZSU1CSu_nFQ4g8SWuqo-4" value="" style="endArrow=classic;html=1;rounded=0;" edge="1" parent="1" source="KwT5RkakPbR6_VRtJiSc-16" target="KwT5RkakPbR6_VRtJiSc-29">
          <mxGeometry relative="1" as="geometry">
            <mxPoint x="-143" y="99" as="sourcePoint" />
            <mxPoint x="549" y="97" as="targetPoint" />
            <Array as="points">
              <mxPoint x="-12" y="97" />
              <mxPoint x="-34" y="97" />
            </Array>
          </mxGeometry>
        </mxCell>
        <mxCell id="QZSU1CSu_nFQ4g8SWuqo-5" value="Account Creation Successful&lt;div&gt;&lt;br&gt;&lt;/div&gt;" style="edgeLabel;resizable=0;html=1;;align=center;verticalAlign=middle;" connectable="0" vertex="1" parent="QZSU1CSu_nFQ4g8SWuqo-4">
          <mxGeometry relative="1" as="geometry">
            <mxPoint x="5" y="6" as="offset" />
          </mxGeometry>
        </mxCell>
        <mxCell id="QZSU1CSu_nFQ4g8SWuqo-14" value="" style="endArrow=classic;html=1;rounded=0;" edge="1" parent="1">
          <mxGeometry relative="1" as="geometry">
            <mxPoint x="368" y="597" as="sourcePoint" />
            <mxPoint x="558" y="601" as="targetPoint" />
            <Array as="points">
              <mxPoint x="400" y="597" />
              <mxPoint x="500" y="601" />
            </Array>
          </mxGeometry>
        </mxCell>
        <mxCell id="QZSU1CSu_nFQ4g8SWuqo-15" value="Label" style="edgeLabel;resizable=0;html=1;;align=center;verticalAlign=middle;" connectable="0" vertex="1" parent="QZSU1CSu_nFQ4g8SWuqo-14">
          <mxGeometry relative="1" as="geometry" />
        </mxCell>
        <mxCell id="QZSU1CSu_nFQ4g8SWuqo-16" value="&lt;div&gt;&lt;div&gt;Saved Order with information&lt;/div&gt;&lt;/div&gt;&lt;div&gt;&lt;br&gt;&lt;/div&gt;" style="edgeLabel;html=1;align=center;verticalAlign=middle;resizable=0;points=[];" vertex="1" connectable="0" parent="QZSU1CSu_nFQ4g8SWuqo-14">
          <mxGeometry x="-0.0106" y="-1" relative="1" as="geometry">
            <mxPoint x="-1" y="-2" as="offset" />
          </mxGeometry>
        </mxCell>
        <mxCell id="QZSU1CSu_nFQ4g8SWuqo-21" value="Order Successful&lt;div&gt;&lt;br&gt;&lt;/div&gt;" style="html=1;verticalAlign=bottom;endArrow=open;dashed=1;endSize=8;curved=0;rounded=0;" edge="1" parent="1" source="QZSU1CSu_nFQ4g8SWuqo-22" target="KwT5RkakPbR6_VRtJiSc-40">
          <mxGeometry relative="1" as="geometry">
            <mxPoint x="541" y="641" as="sourcePoint" />
            <mxPoint x="461" y="641" as="targetPoint" />
          </mxGeometry>
        </mxCell>
        <mxCell id="QZSU1CSu_nFQ4g8SWuqo-22" value="" style="ellipse;html=1;shape=endState;fillColor=#000000;strokeColor=#ff0000;" vertex="1" parent="1">
          <mxGeometry x="526" y="626" width="30" height="30" as="geometry" />
        </mxCell>
      </root>
    </mxGraphModel>
  </diagram>
</mxfile>
